<svg xmlns="http://www.w3.org/2000/svg" xmlns:xlink="http://www.w3.org/1999/xlink" width="500" zoomAndPan="magnify" viewBox="0 0 375 374.999991" height="500" preserveAspectRatio="xMidYMid meet" version="1.0"><defs><g/></defs><rect x="-37.5" width="450" fill="#ffffff" y="-37.499999" height="449.999989" fill-opacity="1"/><rect x="-37.5" width="450" fill="#ff3131" y="-37.499999" height="449.999989" fill-opacity="1"/><g fill="#ffffff" fill-opacity="1"><g transform="translate(0.0000045, 213.677999)"><g><path d="M 6.90625 0 L 6.90625 -53.15625 L 29.59375 -53.15625 C 32.863281 -53.15625 35.628906 -52.640625 37.890625 -51.609375 C 40.160156 -50.578125 41.875 -49.109375 43.03125 -47.203125 C 44.195312 -45.304688 44.78125 -43.0625 44.78125 -40.46875 C 44.78125 -38.113281 44.210938 -36.039062 43.078125 -34.25 C 41.941406 -32.457031 40.304688 -31.015625 38.171875 -29.921875 L 38.171875 -29.15625 C 41.515625 -28.28125 44.09375 -26.691406 45.90625 -24.390625 C 47.726562 -22.085938 48.640625 -19.265625 48.640625 -15.921875 C 48.640625 -10.828125 47.101562 -6.898438 44.03125 -4.140625 C 40.96875 -1.378906 36.421875 0 30.390625 0 Z M 27.40625 -31.953125 C 32.300781 -31.953125 34.75 -34.160156 34.75 -38.578125 C 34.75 -40.828125 34.144531 -42.503906 32.9375 -43.609375 C 31.726562 -44.710938 29.882812 -45.265625 27.40625 -45.265625 L 17.40625 -45.265625 L 17.40625 -31.953125 Z M 29.34375 -8.328125 C 35.132812 -8.328125 38.03125 -10.957031 38.03125 -16.21875 C 38.03125 -21.5 35.132812 -24.140625 29.34375 -24.140625 L 17.40625 -24.140625 L 17.40625 -8.328125 Z M 29.34375 -8.328125 "/></g></g></g><g fill="#ffffff" fill-opacity="1"><g transform="translate(51.979747, 213.677999)"><g><path d="M 28.96875 0.765625 C 24.101562 0.765625 19.804688 -0.226562 16.078125 -2.21875 C 12.359375 -4.207031 9.445312 -7.242188 7.34375 -11.328125 C 5.238281 -15.410156 4.1875 -20.492188 4.1875 -26.578125 C 4.1875 -32.660156 5.238281 -37.742188 7.34375 -41.828125 C 9.445312 -45.910156 12.359375 -48.941406 16.078125 -50.921875 C 19.804688 -52.910156 24.101562 -53.90625 28.96875 -53.90625 C 33.84375 -53.90625 38.132812 -52.914062 41.84375 -50.9375 C 45.550781 -48.96875 48.453125 -45.9375 50.546875 -41.84375 C 52.640625 -37.75 53.6875 -32.660156 53.6875 -26.578125 C 53.6875 -20.492188 52.640625 -15.398438 50.546875 -11.296875 C 48.453125 -7.203125 45.550781 -4.164062 41.84375 -2.1875 C 38.132812 -0.21875 33.84375 0.765625 28.96875 0.765625 Z M 28.96875 -8.359375 C 33.476562 -8.359375 36.921875 -9.804688 39.296875 -12.703125 C 41.671875 -15.597656 42.859375 -20.222656 42.859375 -26.578125 C 42.859375 -32.921875 41.671875 -37.546875 39.296875 -40.453125 C 36.921875 -43.367188 33.476562 -44.828125 28.96875 -44.828125 C 24.4375 -44.828125 20.976562 -43.367188 18.59375 -40.453125 C 16.207031 -37.546875 15.015625 -32.921875 15.015625 -26.578125 C 15.015625 -20.222656 16.207031 -15.597656 18.59375 -12.703125 C 20.976562 -9.804688 24.4375 -8.359375 28.96875 -8.359375 Z M 28.96875 -8.359375 "/></g></g></g><g fill="#ffffff" fill-opacity="1"><g transform="translate(109.88448, 213.677999)"><g><path d="M 17.09375 0 L 6.90625 0 L 6.90625 -53.15625 L 18.9375 -53.15625 L 40.28125 -18.90625 L 41.21875 -19.046875 L 41.21875 -53.15625 L 51.328125 -53.15625 L 51.328125 0 L 40.578125 0 L 18 -36.578125 L 17.09375 -36.421875 Z M 17.09375 0 "/></g></g></g><g fill="#ffffff" fill-opacity="1"><g transform="translate(168.152708, 213.677999)"><g><path d="M 18.609375 0.765625 C 14.097656 0.765625 10.351562 -0.0859375 7.375 -1.796875 C 4.394531 -3.503906 2.226562 -5.800781 0.875 -8.6875 L 6.796875 -15.890625 L 7.703125 -15.890625 C 8.671875 -13.554688 10.046875 -11.71875 11.828125 -10.375 C 13.609375 -9.03125 15.675781 -8.359375 18.03125 -8.359375 C 20.675781 -8.359375 22.640625 -9.128906 23.921875 -10.671875 C 25.203125 -12.210938 25.84375 -14.710938 25.84375 -18.171875 L 25.84375 -53.15625 L 36.3125 -53.15625 L 36.3125 -18 C 36.3125 -11.570312 34.851562 -6.835938 31.9375 -3.796875 C 29.019531 -0.753906 24.578125 0.765625 18.609375 0.765625 Z M 18.609375 0.765625 "/></g></g></g><g fill="#ffffff" fill-opacity="1"><g transform="translate(211.045083, 213.677999)"><g><path d="M 28.96875 0.765625 C 24.101562 0.765625 19.804688 -0.226562 16.078125 -2.21875 C 12.359375 -4.207031 9.445312 -7.242188 7.34375 -11.328125 C 5.238281 -15.410156 4.1875 -20.492188 4.1875 -26.578125 C 4.1875 -32.660156 5.238281 -37.742188 7.34375 -41.828125 C 9.445312 -45.910156 12.359375 -48.941406 16.078125 -50.921875 C 19.804688 -52.910156 24.101562 -53.90625 28.96875 -53.90625 C 33.84375 -53.90625 38.132812 -52.914062 41.84375 -50.9375 C 45.550781 -48.96875 48.453125 -45.9375 50.546875 -41.84375 C 52.640625 -37.75 53.6875 -32.660156 53.6875 -26.578125 C 53.6875 -20.492188 52.640625 -15.398438 50.546875 -11.296875 C 48.453125 -7.203125 45.550781 -4.164062 41.84375 -2.1875 C 38.132812 -0.21875 33.84375 0.765625 28.96875 0.765625 Z M 28.96875 -8.359375 C 33.476562 -8.359375 36.921875 -9.804688 39.296875 -12.703125 C 41.671875 -15.597656 42.859375 -20.222656 42.859375 -26.578125 C 42.859375 -32.921875 41.671875 -37.546875 39.296875 -40.453125 C 36.921875 -43.367188 33.476562 -44.828125 28.96875 -44.828125 C 24.4375 -44.828125 20.976562 -43.367188 18.59375 -40.453125 C 16.207031 -37.546875 15.015625 -32.921875 15.015625 -26.578125 C 15.015625 -20.222656 16.207031 -15.597656 18.59375 -12.703125 C 20.976562 -9.804688 24.4375 -8.359375 28.96875 -8.359375 Z M 28.96875 -8.359375 "/></g></g></g><g fill="#ffffff" fill-opacity="1"><g transform="translate(268.949815, 213.677999)"><g><path d="M 28.171875 0.765625 C 20.859375 0.765625 15.429688 -0.972656 11.890625 -4.453125 C 8.347656 -7.929688 6.578125 -13.085938 6.578125 -19.921875 L 6.578125 -53.15625 L 16.875 -53.15625 L 16.875 -20 C 16.875 -16.113281 17.804688 -13.203125 19.671875 -11.265625 C 21.535156 -9.328125 24.367188 -8.359375 28.171875 -8.359375 C 35.710938 -8.359375 39.484375 -12.238281 39.484375 -20 L 39.484375 -53.15625 L 49.765625 -53.15625 L 49.765625 -19.921875 C 49.765625 -13.085938 47.992188 -7.929688 44.453125 -4.453125 C 40.921875 -0.972656 35.492188 0.765625 28.171875 0.765625 Z M 28.171875 0.765625 "/></g></g></g><g fill="#ffffff" fill-opacity="1"><g transform="translate(325.291495, 213.677999)"><g><path d="M 6.90625 0 L 6.90625 -53.15625 L 28.25 -53.15625 C 33.75 -53.15625 37.894531 -51.882812 40.6875 -49.34375 C 43.488281 -46.8125 44.890625 -43.316406 44.890625 -38.859375 C 44.890625 -35.640625 44.070312 -33 42.4375 -30.9375 C 40.800781 -28.875 38.363281 -27.300781 35.125 -26.21875 L 35.125 -25.453125 C 36.789062 -24.722656 38.140625 -23.640625 39.171875 -22.203125 C 40.203125 -20.773438 41.175781 -18.65625 42.09375 -15.84375 L 47.40625 0 L 36.609375 0 L 31.40625 -15.890625 C 30.875 -17.484375 30.273438 -18.722656 29.609375 -19.609375 C 28.941406 -20.492188 28.09375 -21.132812 27.0625 -21.53125 C 26.03125 -21.9375 24.691406 -22.140625 23.046875 -22.140625 L 17.40625 -22.140625 L 17.40625 0 Z M 26.96875 -30.46875 C 32.0625 -30.46875 34.609375 -32.84375 34.609375 -37.59375 C 34.609375 -42.414062 32.0625 -44.828125 26.96875 -44.828125 L 17.40625 -44.828125 L 17.40625 -30.46875 Z M 26.96875 -30.46875 "/></g></g></g></svg>